<?xml version="1.0" encoding="UTF-8"?><svg xmlns="http://www.w3.org/2000/svg" viewBox="0 0 180.91 250.85"><defs><style>.d{fill:#fff;}</style></defs><g id="a"/><g id="b"><g id="c"><path class="d" d="M175.56,208.29l-.07-.07c-.07-.07-.15-.15-.23-.22l-12.49-11.69c3.18-2.83,5.17-6.67,5.66-10.93,.6-5.25-1.2-10.42-4.95-14.16-2.75-2.75-6.38-4.5-10.25-4.94-.22-.02-19.62-2.2-26.01-2.97-6.72-.81-13.05-3.89-17.84-8.67-.69-.69-1.36-1.43-1.98-2.19-10.96-13.32-20.35-23.91-27.92-31.48-1.74-1.74-3.37-3.31-4.92-4.74l52.11-53.71c6.17-6.36,6.09-16.63-.17-22.89L91.63,4.78C88.15,1.29,83.33-.42,78.43,.09c-4.91,.51-9.27,3.16-11.97,7.29L6.82,98.49C1.56,106.53-.78,116.22,.23,125.77c1.01,9.47,5.25,18.37,11.96,25.08,1.35,1.35,2.82,2.63,4.35,3.79,20.31,15.36,44.66,31.27,64.23,44.06,2.97,1.94,5.74,4.19,8.24,6.69,1.71,1.71,3.33,3.58,4.81,5.54,7.72,10.25,16.3,20.16,24.81,28.67,1.2,1.2,2.19,2.17,2.84,2.8,.29,.29,.53,.51,.7,.68,2.84,2.82,5.99,4.59,9.39,5.28,2.65,.53,5.29,.37,7.75-.44,5.42,3.64,12.46,3.88,18.08,.72,5.86,1.69,12.45,.21,17.04-4.41,4.31-4.34,5.83-10.43,4.57-16.01,3.4-6.34,2.22-14.26-3.45-19.94Z"/></g></g></svg>