<?xml version="1.0" encoding="UTF-8"?><svg xmlns="http://www.w3.org/2000/svg" viewBox="0 0 247.65 252.78"><defs><style>.d{fill:#fff;}</style></defs><g id="a"/><g id="b"><g id="c"><path class="d" d="M234.52,97.77c15.6-29.25,13.01-88.41,12.9-90.92-.09-1.93-.93-3.7-2.36-5-1.43-1.29-3.27-1.94-5.15-1.84-3.96,.19-7.03,3.56-6.84,7.51,0,.04,.12,2.71,.17,7.13H14.42c.05-4.4,.16-7.09,.17-7.13,.09-1.92-.57-3.76-1.86-5.18C11.43,.93,9.66,.1,7.76,.01c-1.92-.1-3.76,.56-5.18,1.85C1.15,3.15,.32,4.93,.23,6.85c-.12,2.51-2.69,61.68,12.9,90.92,6.19,11.61,10.93,42.66,11.8,77.27,1.03,41.29-3.74,62.17-6.99,65.64-1.31,1.4-2,3.23-1.94,5.15,.06,1.92,.87,3.7,2.27,5.01,1.34,1.25,3.08,1.94,4.91,1.94,1.98,0,3.89-.83,5.24-2.27,2.29-2.44,4.11-6.29,5.57-10.98H213.62c1.53,4.97,3.37,8.59,5.61,10.98,1.35,1.44,3.26,2.27,5.24,2.27,1.83,0,3.58-.69,4.91-1.94,1.4-1.31,2.21-3.09,2.27-5.01,.06-1.92-.63-3.75-1.94-5.15-3.25-3.47-8.02-24.35-6.99-65.64,.87-34.61,5.61-65.66,11.8-77.27Zm-104.97,129.32c0,2.64-2.56,4.78-5.73,4.78s-5.73-2.14-5.73-4.78V25.69c0-2.64,2.56-4.78,5.73-4.78s5.73,2.14,5.73,4.78V227.08Z"/></g></g></svg>