<?xml version="1.0" encoding="UTF-8"?><svg xmlns="http://www.w3.org/2000/svg" viewBox="0 0 106.09 252.2"><defs><style>.d{fill:#fff;}</style></defs><g id="a"/><g id="b"><g id="c"><path class="d" d="M54.39,144.19c-.37,4.38,2.6,27.54,4.13,36.62,.73,4.3,2.73,11.31,2.01,15.03-1.03,5.19-1.33,11.9-.76,15.81,.36,2.37,1.48,13.32-.13,17.33-.84,2.1-2.38,12.86-2.38,12.86-4.02,10.14-1.75,9.64-1.75,9.64,1.24,1.53,3.37,.12,3.37,.12,1.62,1.03,2.75-.25,2.75-.25,1.39,1.15,3.02-.14,3.02-.14,1.75,.91,3.37-.77,3.37-.77,1,.51,1.25-.13,1.25-.13,3.01-.19-1.68-9.84-1.68-9.84-1.12-8.66,1.12-13.49,1.12-13.49,7.34-21.76,7.71-27.54,4.78-35.74-.83-2.37-1.04-3.31-.66-4.33,.88-2.37,.24-11.92,1.31-15.7,2.07-7.31,4.11-25.84,5.17-34.49,1.43-11.65-5.06-27.27-5.06-27.27-1.42-6.36,.66-29,.66-29,2.91,4.53,2.8,12.52,2.8,12.52-.46,8.38,6.77,21.2,6.77,21.2,3.48,5.3,4.79,10.32,4.79,10.69,0,1.53-.33,5.22-.33,5.22l.13,3.22c.06,.82,.52,3.64,.45,5-.54,8.39,.79,6.81,.79,6.81,1.12,0,2.36-6.75,2.36-6.75,0,1.74-.43,6.95,.51,8.92,1.12,2.34,1.95-.4,1.96-.95,.3-10.68,.94-7.88,.94-7.88,.62,8.66,1.39,10.62,2.77,9.94,1.04-.5,.09-10.4,.09-10.4,1.79,5.88,3.14,6.82,3.14,6.82,2.95,2.07,1.12-3.65,.72-4.78-2.18-6.01-2.25-8.1-2.25-8.1,2.72,5.4,4.78,5.2,4.78,5.2,2.66-.85-2.32-8.5-5.24-12.17-1.49-1.87-3.41-4.37-3.97-5.85-.91-2.52-1.59-10.6-1.59-10.6-.28-9.54-2.63-13.69-2.63-13.69-4.03-6.46-4.79-18.5-4.79-18.5l-.18-20.33c-1.41-13.87-11.63-13.97-11.63-13.97-10.33-1.54-11.77-4.87-11.77-4.87-2.19-3.15-.94-9.18-.94-9.18,1.82-1.48,2.52-5.4,2.52-5.4,3.01-2.31,2.87-5.69,1.47-5.66-1.12,.03-.86-.9-.86-.9C67.6,.78,54.08,0,54.08,0h-2.06s-13.52,.78-11.64,16c0,0,.25,.93-.87,.9-1.39-.04-1.52,3.35,1.49,5.66,0,0,.7,3.92,2.52,5.4,0,0,1.25,6.04-.94,9.18,0,0-1.43,3.34-11.77,4.87,0,0-10.24,.1-11.63,13.97l-.19,20.33s-.74,12.04-4.79,18.5c0,0-2.35,4.15-2.62,13.69,0,0-.69,8.09-1.59,10.6-.55,1.48-2.47,3.98-3.97,5.85-2.94,3.66-7.89,11.29-5.24,12.17,0,0,2.06,.2,4.78-5.2,0,0-.06,2.07-2.23,8.1-.43,1.12-2.25,6.83,.7,4.78,0,0,1.37-.94,3.14-6.82,0,0-.95,9.9,.11,10.4,1.38,.68,2.14-1.28,2.76-9.94,0,0,.64-2.8,.94,7.88,.01,.55,.82,3.3,1.95,.95,.95-1.97,.52-7.17,.52-8.92,0,0,1.22,6.75,2.36,6.75,0,0,1.34,1.58,.79-6.81-.09-1.37,.39-4.18,.45-5l.13-3.22s-.33-3.68-.33-5.22c0-.38,1.32-5.4,4.79-10.69,0,0,7.23-12.82,6.76-21.2,0,0-.1-7.99,2.81-12.52,0,0,2.07,22.64,.67,29,0,0-6.5,15.62-5.07,27.27,1.06,8.67,3.09,27.18,5.17,34.49,1.08,3.78,.44,13.32,1.31,15.7,.39,1.04,.19,1.99-.66,4.33-2.92,8.2-2.55,13.98,4.79,35.74,0,0,2.26,4.82,1.12,13.49,0,0-4.69,9.65-1.69,9.84,0,0,.23,.64,1.25,.13,0,0,1.62,1.67,3.37,.77,0,0,1.62,1.3,3.01,.14,0,0,1.11,1.28,2.73,.25,0,0,2.13,1.44,3.39-.12,0,0,2.25,.5-1.75-9.64,0,0-1.53-10.75-2.38-12.86-1.61-4-.47-14.97-.13-17.33,.55-3.93,.26-10.63-.76-15.81-.74-3.71,1.27-10.72,2.01-15.03,1.52-9.07,4.5-32.24,4.13-36.62l1.23,.43c.88,0,1.44-.43,1.44-.43Z"/></g></g></svg>