<?xml version="1.0" encoding="UTF-8"?><svg xmlns="http://www.w3.org/2000/svg" viewBox="0 0 252.2 206.25"><defs><style>.d{fill:#fff;}</style></defs><g id="a"/><g id="b"><g id="c"><path class="d" d="M233.1,81.6l-.45-.64V0h-17.6V82.89l-88.95,52.82L37.14,82.89V0H19.55V80.96l-.45,.64c-.78,1.11-19.1,27.46-19.1,60.46,0,35.39,28.8,64.19,64.19,64.19,12.43,0,24.05-3.56,33.89-9.7h56.04c9.84,6.14,21.46,9.7,33.89,9.7,35.39,0,64.19-28.8,64.19-64.19,0-33-18.32-59.36-19.1-60.46ZM56.28,133.32c-2.62,4.5-8.42,6.01-12.96,3.37-4.54-2.64-6.09-8.43-3.47-12.93,2.62-4.5,8.42-6.01,12.96-3.37,4.54,2.64,6.09,8.43,3.47,12.93Zm32.85,19.13c-2.62,4.5-8.42,6.01-12.96,3.37-4.54-2.64-6.09-8.43-3.47-12.93,2.62-4.5,8.42-6.01,12.96-3.37,4.54,2.64,6.09,8.43,3.47,12.93Zm27.56,26.51c4.21-5.98,7.43-12.7,9.41-19.93,1.98,7.23,5.2,13.95,9.41,19.93h-18.82Zm59.34-23.14c-4.54,2.64-10.34,1.13-12.96-3.37-2.62-4.5-1.07-10.29,3.47-12.93,4.54-2.64,10.34-1.13,12.96,3.37,2.62,4.5,1.07,10.29-3.47,12.93Zm32.85-19.13c-4.54,2.64-10.34,1.13-12.96-3.37-2.62-4.5-1.07-10.29,3.47-12.93,4.54-2.64,10.34-1.13,12.96,3.37,2.62,4.5,1.07,10.29-3.47,12.93Z"/></g></g></svg>