<?xml version="1.0" encoding="UTF-8"?><svg xmlns="http://www.w3.org/2000/svg" viewBox="0 0 249.81 252.49"><defs><style>.d{fill:#fff;}</style></defs><g id="a"/><g id="b"><g id="c"><path class="d" d="M236.64,64.33c-.82-9.08-6.02-16.63-13.48-20.69-1.04-11.4,.76-23.29,5.63-37.2,.88-2.52-.45-5.28-2.97-6.16-2.52-.88-5.28,.45-6.16,2.97-4.73,13.5-6.82,25.78-6.38,37.33-.97-.1-1.95-.16-2.95-.16H39.89c-.85,0-1.69,.04-2.52,.11,.44-11.54-1.66-23.81-6.38-37.28-.88-2.52-3.64-3.85-6.16-2.97-2.52,.88-3.85,3.64-2.97,6.16,4.84,13.81,6.65,25.64,5.65,36.96-7.68,3.99-13.07,11.64-13.92,20.87C1.28,83.31-2.7,104.66,1.78,127.74c3.33,17.16,10.45,29.95,13.04,34.2l11.88,84.1,.03,.16c.62,3.08,3,5.23,6.13,5.58l.71,.71,1.52-.3c3.62-.72,6.26-4.65,5.6-8.28l-12.44-86.75h0c17.12,19.6,36.95,26.25,60.16,16.76-.03,.07-.06,.13-.08,.2-.62,1.85-.38,3.9,.65,5.63l.07,.12c1.44,2.16,3.62,3.36,6.13,3.36,.93,0,1.63-.24,2.05-.41h.29l.62-.32c7.59-3.88,14.29-9.38,19.71-16.17v78.88c0,4.07,2.96,7.03,7.03,7.03,2.09,0,3.95-.78,5.24-2.2,1.42-1.3,2.2-3.15,2.2-5.24v-77.61c5.25,6.4,11.67,11.61,18.91,15.31,1.44,.72,2.42,.72,3.36,.72,2.68,0,4.94-1.4,5.89-3.61,.6-.94,.9-2.02,.9-3.15,23.24,8.05,44.48-6.14,60.15-19.28l-12.43,86.31c-.65,3.88,1.81,7.52,5.59,8.27l.28,.06h1.11c3.27,0,5.97-2.52,6.59-6.21l11.88-83.68c6-9.79,29.82-53.99,2.06-97.61Z"/></g></g></svg>