<?xml version="1.0" encoding="UTF-8"?><svg xmlns="http://www.w3.org/2000/svg" viewBox="0 0 247.65 252.78"><defs><style>.d{fill:#fff;}</style></defs><g id="a"/><g id="b"><g id="c"><g><path class="d" d="M234.52,97.77c15.6-29.25,13.01-88.41,12.9-90.92-.09-1.93-.93-3.7-2.36-5-1.43-1.29-3.27-1.94-5.15-1.84H7.76c-1.92-.1-3.76,.56-5.18,1.85C1.15,3.15,.32,4.93,.23,6.85c-.12,2.51-2.69,61.68,12.9,90.92,6.19,11.61,10.93,42.66,11.8,77.27,1.03,41.29-3.74,62.17-6.99,65.64-1.31,1.4-2,3.23-1.94,5.15,.06,1.92,.87,3.7,2.27,5.01,1.34,1.25,3.08,1.94,4.91,1.94,1.98,0,3.89-.83,5.24-2.27,11.22-11.97,11.34-57.01,10.87-75.83-.18-7.23-1.16-35.37-5.73-58.78,.28-.03,.57-.09,.85-.15,23.86-5.85,52.87-5.61,65.13-5.37,4.22,.08,8.2,.16,12.62,0,4.1-.14,8.22-1.62,11.67-4.11,3.45,2.49,7.57,3.98,11.67,4.11,4.42,.15,8.4,.07,12.63,0,12.25-.24,41.35-.48,65.2,5.37,.26,.06,.52,.11,.78,.14-4.57,23.42-5.55,51.57-5.73,58.8-.56,22.36,.61,42.95,3.22,56.5l1.03,4.7,.03,.13c1.7,6.83,3.85,11.57,6.59,14.49,1.35,1.44,3.26,2.27,5.24,2.27,1.83,0,3.58-.69,4.91-1.94,1.4-1.31,2.21-3.09,2.27-5.01,.06-1.92-.63-3.75-1.94-5.15-3.25-3.47-8.02-24.35-6.99-65.64,.87-34.61,5.61-65.66,11.8-77.27Zm-20.1,13.52h0Z"/><path class="d" d="M79.04,133.06h0c-3.48-1.9-7.85-.61-9.75,2.87-.21,.39-5.19,9.61-8.31,24.8-2.84,13.85-4.67,35.68,2.77,61.06,.89,3.04,3.73,5.16,6.89,5.16,.68,0,1.37-.1,2.02-.29,3.8-1.12,5.99-5.12,4.87-8.92-6.59-22.46-5.01-41.74-2.52-53.95,2.64-12.95,6.85-20.93,6.89-20.99,1.89-3.48,.6-7.85-2.87-9.74Z"/><path class="d" d="M178.35,135.93h0c-.92-1.69-2.44-2.91-4.28-3.45-1.84-.54-3.79-.33-5.47,.59-1.69,.92-2.91,2.44-3.45,4.28-.54,1.84-.33,3.78,.57,5.44,.17,.32,16.87,32.37,4.37,74.96-.54,1.84-.33,3.78,.59,5.47,.92,1.68,2.44,2.91,4.28,3.45,.66,.19,1.34,.29,2.03,.29,3.16,0,6-2.12,6.89-5.16,7.44-25.38,5.62-47.21,2.77-61.06-3.06-14.92-7.78-23.83-8.31-24.8Z"/><path class="d" d="M123.82,126c-3.96,0-7.19,3.22-7.19,7.19v63.7c0,3.96,3.22,7.19,7.19,7.19s7.19-3.22,7.19-7.19v-63.7c0-3.96-3.22-7.19-7.19-7.19Z"/><path class="d" d="M123.82,209.91c-3.96,0-7.19,2.41-7.19,5.37v6.93c0,2.96,3.22,5.37,7.19,5.37s7.19-2.41,7.19-5.37v-6.93c0-2.96-3.22-5.37-7.19-5.37Z"/></g></g></g></svg>