<?xml version="1.0" encoding="UTF-8"?><svg xmlns="http://www.w3.org/2000/svg" viewBox="0 0 247.65 252.78"><defs><style>.d{fill:#fff;}</style></defs><g id="a"/><g id="b"><g id="c"><path class="d" d="M234.52,97.77c15.6-29.25,13.01-88.41,12.9-90.92-.09-1.93-.93-3.7-2.36-5-1.43-1.29-3.27-1.94-5.15-1.84H7.76c-1.92-.1-3.76,.56-5.18,1.85C1.15,3.15,.32,4.93,.23,6.85c-.12,2.51-2.69,61.68,12.9,90.92,6.19,11.61,10.93,42.66,11.8,77.27,1.03,41.29-3.74,62.17-6.99,65.64-1.31,1.4-2,3.23-1.94,5.15,.06,1.92,.87,3.7,2.27,5.01,1.34,1.25,3.08,1.94,4.91,1.94,1.98,0,3.89-.83,5.24-2.27,11.22-11.97,11.34-57.01,10.87-75.83-.18-7.23-1.16-35.37-5.73-58.78,.28-.03,.57-.09,.85-.15,23.86-5.85,52.87-5.61,65.13-5.37,4.22,.08,8.2,.16,12.62,0,4.1-.14,8.22-1.62,11.67-4.11,3.45,2.49,7.57,3.98,11.67,4.11,4.42,.15,8.4,.07,12.63,0,12.25-.24,41.35-.48,65.2,5.37,.26,.06,.52,.11,.78,.14-4.57,23.42-5.55,51.57-5.73,58.8-.56,22.36,.61,42.95,3.22,56.5l1.03,4.7,.03,.13c1.7,6.83,3.85,11.57,6.59,14.49,1.35,1.44,3.26,2.27,5.24,2.27,1.83,0,3.58-.69,4.91-1.94,1.4-1.31,2.21-3.09,2.27-5.01,.06-1.92-.63-3.75-1.94-5.15-3.25-3.47-8.02-24.35-6.99-65.64,.87-34.61,5.61-65.66,11.8-77.27Zm-20.1,13.52h0Z"/></g></g></svg>