<?xml version="1.0" encoding="UTF-8"?><svg xmlns="http://www.w3.org/2000/svg" viewBox="0 0 206.02 221.96"><defs><style>.d{fill:#fff;}</style></defs><g id="a"/><g id="b"><g id="c"><path class="d" d="M145.98,4.49C100.09-10.78,50.29,14.16,35.02,60.04L2.5,157.76c-4.04,12.12-3.16,25.34,2.46,36.81,5.51,11.54,15.48,20.35,27.61,24.39,17.44,5.8,34.24,3.19,49.94-7.77,3.06-2.13,6.84-5.47,11.21-9.33,11.4-10.06,27-23.84,42.59-28.25,14.95-4.23,28.57-11.27,39.36-20.38,12.25-10.28,20.94-23,25.86-37.77,15.27-45.89-9.64-95.68-55.55-110.96Zm16.45,102.15c-4.18-1.39-6.44-5.91-5.05-10.09,6.25-18.78-5.64-39.71-26.51-46.65-20.87-6.94-42.93,2.69-49.18,21.47l-4.79,14.39c14.1,.57,28.68,6.01,31.42,7.08,12.5,4.29,19.15,17.91,14.86,30.41-1.59,4.64-4.58,8.69-8.55,11.58-.21,.15-.42,.29-.64,.42-10.82,6.38-24.19,15.85-26.85,19.96-2.49,3.64-7.45,4.57-11.09,2.08-3.53-2.41-4.53-7.18-2.27-10.8,5.9-9.04,26.63-21.72,31.7-24.73,3.46-2.72,4.06-7.74,1.34-11.2-.97-1.23-2.27-2.15-3.76-2.64l-.42-.14c-7.71-3.03-21.83-6.85-31.08-5.98l-8.77,26.34c-1.39,4.18-5.91,6.44-10.09,5.05s-6.44-5.91-5.05-10.09l18.89-56.77c9.03-27.13,40.14-41.29,69.35-31.57,29.22,9.72,45.64,39.7,36.61,66.83-1.39,4.18-5.91,6.44-10.09,5.05Z"/></g></g></svg>