<?xml version="1.0" encoding="UTF-8"?><svg xmlns="http://www.w3.org/2000/svg" viewBox="0 0 252.2 62.72"><defs><style>.d{fill:#fff;}</style></defs><g id="a"/><g id="b"><g id="c"><path class="d" d="M220.84,0c-16.97,0-30.78,13.48-31.33,30.32h-32.07c-.55-16.83-14.36-30.32-31.33-30.32s-30.78,13.48-31.33,30.32H62.69C62.14,13.48,48.33,0,31.36,0S0,14.04,0,31.36s14.04,31.36,31.36,31.36,30.78-13.48,31.33-30.32h32.07c.55,16.83,14.36,30.32,31.33,30.32s30.78-13.48,31.33-30.32h32.07c.55,16.83,14.36,30.32,31.33,30.32s31.36-14.04,31.36-31.36S238.16,0,220.84,0Z"/></g></g></svg>