<?xml version="1.0" encoding="UTF-8"?><svg xmlns="http://www.w3.org/2000/svg" viewBox="0 0 252.19 150.62"><defs><style>.d{fill:#fff;}</style></defs><g id="a"/><g id="b"><g id="c"><path class="d" d="M214.58,35.49h0C185.16,12.27,154.56,0,126.09,0S67.03,12.27,37.62,35.49C15.6,52.87,2.18,69.91,1.63,70.62c-2.17,2.76-2.17,6.62,0,9.38,.56,.72,14,17.77,36,35.13,29.42,23.22,60.01,35.49,88.47,35.49s59.06-12.27,88.48-35.49c21.99-17.36,35.43-34.42,35.99-35.13,2.17-2.76,2.17-6.62,0-9.38-.56-.72-13.98-17.75-36-35.14Zm-45.41,39.82c0,21.41-17.42,38.83-38.84,38.83s-38.83-17.42-38.83-38.83,17.42-38.83,38.83-38.83,38.84,17.42,38.84,38.83Z"/></g></g></svg>