<?xml version="1.0" encoding="UTF-8"?><svg xmlns="http://www.w3.org/2000/svg" viewBox="0 0 252.2 171.47"><defs><style>.d{fill:#fff;}</style></defs><g id="a"/><g id="b"><g id="c"><g><path class="d" d="M206.5,66.84h0c-26.73-21.1-54.54-32.25-80.41-32.25s-53.67,11.15-80.4,32.25c-20.01,15.8-32.2,31.28-32.71,31.92-1.97,2.51-1.97,6.02,0,8.53,.51,.65,12.72,16.15,32.71,31.93,26.73,21.1,54.53,32.25,80.4,32.25s53.67-11.15,80.41-32.25c19.99-15.78,32.2-31.28,32.71-31.92,1.97-2.51,1.97-6.02,0-8.53-.51-.65-12.7-16.13-32.71-31.93Zm-41.27,36.19c0,19.46-15.83,35.29-35.29,35.29s-35.29-15.83-35.29-35.29,15.83-35.29,35.29-35.29,35.29,15.83,35.29,35.29Z"/><path class="d" d="M250.7,64.13h0c-1.76-2.21-44-54.3-112.13-63.16C78.84-6.78,6.5,34.44,3.45,36.2c-3.29,1.9-4.43,6.12-2.53,9.42,1.9,3.28,6.12,4.42,9.41,2.53,.71-.41,71.42-40.64,126.46-33.5,62.3,8.1,102.73,57.59,103.13,58.08,1.32,1.65,3.28,2.59,5.39,2.59,1.55,0,3.08-.53,4.3-1.51,2.96-2.37,3.45-6.71,1.09-9.68Z"/><path class="d" d="M139.56,102.52c6.08,0,11.02-4.95,11.02-11.02s-4.95-11.02-11.02-11.02-11.02,4.95-11.02,11.02,4.95,11.02,11.02,11.02Z"/></g></g></g></svg>