<?xml version="1.0" encoding="UTF-8"?><svg xmlns="http://www.w3.org/2000/svg" viewBox="0 0 252.2 173.73"><defs><style>.d{fill:#fff;}</style></defs><g id="a"/><g id="b"><g id="c"><path class="d" d="M250.03,115.92c-2.78-12.62-20.25-72.8-12.42-115.92h-82.07V51.47c0,6.39-2.78,12.42-7.83,16.43-.98,.82-91.6,69.6-124.31,59.04-16.38-4.79-21.84,.21-23.03,4.38-.62,2.22-.41,4.38,.21,6.59,10.97,24.88,17.46,42.4,134.1,33.44,8.19-.98,26.33-5.2,61.26,1.6,35.5-.93,47.71-7.83,52.65-18.8,4.84-11.8,4.28-25.45,1.44-38.23Zm-35.03-1.44c-12.06,12-29.57,9.17-42.04,2.01-2.63-1.18-3.61-4.38-2.22-6.8,1.18-2.63,4.38-3.61,6.8-2.22,12.93,9.38,26.84,3.61,29.83,.41,9.22-11.28,4.48-26.74,0-30.24-2.22-1.75-2.01-5.2,0-7.21,2.01-2.01,5.2-2.01,7.21,0,4.22,4.22,7.21,9.79,7.99,15.61,1.34,15.09-4.33,25.04-7.57,28.44Z"/></g></g></svg>