<?xml version="1.0" encoding="UTF-8"?><svg xmlns="http://www.w3.org/2000/svg" viewBox="0 0 249.81 250.84"><defs><style>.d{fill:#fff;}</style></defs><g id="a"/><g id="b"><g id="c"><path class="d" d="M242.46,170.32c-5.33-1.6-11.2,1.6-12.8,6.93l-5.33,18.66-24.53-43.73c33.59-25.06,43.73-71.45,23.46-108.78-10.66-19.73-28.79-34.13-50.12-39.99-21.33-6.4-44.26-3.73-63.99,7.47-40.53,22.93-55.46,74.12-32.53,114.11,4.24,7.28,14.03,18.22,20.6,24.66-10.46,2.32-21.35,1.93-31.79-1.2-33.06-10.13-52.26-45.86-42.13-78.92,7.47-23.46,26.13-39.99,50.12-44.26,5.87-1.07,9.6-6.4,8.53-12.26-1.07-5.87-6.4-9.6-12.26-8.53C38.23,9.81,13.17,32.21,3.57,63.14c-12.26,41.06,8,84.25,46.39,101.32l-9.06,29.33-14.4-4.27c-5.33-1.6-11.2,1.6-12.8,6.93s1.6,11.2,6.93,12.8l14.4,4.27-7.47,24c-1.6,5.33,1.6,11.2,6.93,12.8,1.07,.53,2.13,.53,3.2,.53,4.27,0,8.53-2.67,9.6-7.47l7.47-24,16.53,5.33c1.07,.53,2.13,.53,3.2,.53,4.27,0,8.53-2.67,9.6-7.47,1.6-5.33-1.6-11.2-6.93-12.8l-16.53-5.33,9.06-29.33c4.8,1.07,9.6,1.07,14.4,1.07,13.86,0,27.2-3.2,39.46-9.06,19.73-10.66,34.66-28.79,41.06-50.12,7.47-25.06,2.67-53.86-13.86-75.19-3.2-4.8-9.6-5.87-14.4-2.13-4.8,3.2-5.87,9.6-2.13,14.4,12.26,16,16,37.33,10.13,57.06-4.31,14.38-13.81,26.6-26.54,34.73-6.13-5.19-19.39-19.05-23.06-25.67-17.06-30.39-5.87-68.79,24.53-85.85,14.4-8.53,31.46-10.66,47.99-5.87,16.53,4.8,29.86,15.46,37.86,29.86,17.06,30.39,5.87,68.79-24.53,85.85-6.4,3.2-13.33,5.87-20.26,6.93-5.87,1.07-9.6,6.4-8.53,12.26,.53,4.8,5.33,8.53,10.13,8.53,.53,0,1.6,0,2.13,.53,5.87-1.07,11.73-2.67,17.6-5.33l24.53,43.73-19.2-5.33c-5.33-1.6-11.2,2.13-12.8,7.47-1.07,5.33,2.13,11.2,7.47,12.8l43.19,12.26c.53,.53,1.6,.53,2.67,.53,4.8,0,9.06-2.67,10.13-7.47l11.73-43.73c1.6-4.8-1.6-10.66-6.93-12.26Z"/></g></g></svg>