<?xml version="1.0" encoding="UTF-8"?><svg xmlns="http://www.w3.org/2000/svg" viewBox="0 0 227.93 252.24"><defs><style>.d{fill:#fff;}</style></defs><g id="a"/><g id="b"><g id="c"><path class="d" d="M225.7,64.33c-.82-9.08-6.02-16.63-13.48-20.69-1.04-11.4,.76-23.29,5.63-37.2,.88-2.52-.45-5.28-2.97-6.16-2.52-.88-5.28,.45-6.16,2.97-4.73,13.5-6.82,25.78-6.38,37.33-.97-.1-1.95-.16-2.95-.16H28.54c-1,0-1.98,.06-2.95,.16,.45-11.55-1.65-23.84-6.38-37.33-.88-2.52-3.64-3.85-6.16-2.97-2.52,.88-3.85,3.64-2.97,6.16,4.87,13.9,6.68,25.8,5.63,37.2-7.46,4.06-12.66,11.61-13.48,20.69-3.48,30.69-2.96,60.26,2.06,97.61l11.88,83.68c.61,3.68,3.32,6.21,6.59,6.21h1.11l.28-.06c3.78-.76,6.24-4.39,5.59-8.27l-12.44-86.33c-4.04-24.66-5.99-48.61-4.08-71.24,5.14,3.91,33.89,26,50.38,45.86,19.14,23.06,42.92,55.76,42.92,55.76v57.26c0,2.1,.78,3.95,2.2,5.24,1.3,1.42,3.15,2.2,5.24,2.2h0c2.09,0,3.95-.78,5.24-2.2,1.42-1.3,2.2-3.15,2.2-5.24v-57.26s23.78-32.69,42.92-55.76c16.48-19.87,45.24-41.96,50.38-45.86,1.91,22.63-.04,46.58-4.08,71.24l-12.44,86.33c-.65,3.88,1.81,7.52,5.59,8.27l.28,.06h1.11c3.27,0,5.97-2.52,6.59-6.21l11.88-83.68c5.02-37.35,5.54-66.92,2.06-97.61Z"/></g></g></svg>