<?xml version="1.0" encoding="UTF-8"?><svg xmlns="http://www.w3.org/2000/svg" viewBox="0 0 228.2 251.54"><defs><style>.d{fill:#fff;}</style></defs><g id="a"/><g id="b"><g id="c"><path class="d" d="M163.28,50.56c-3.44-3.44-9.05-3.44-12.49,0-2.96,2.96-4.6,6.91-4.6,11.1s1.63,8.13,4.6,11.1l33.53,33.53c1.72,1.72,1.72,4.52,0,6.24-.86,.86-1.99,1.29-3.12,1.29s-2.26-.43-3.12-1.29l-33.53-33.53h0L69.36,3.81c-2.46-2.46-5.72-3.81-9.19-3.81-3.47,0-6.74,1.36-9.19,3.81-5.06,5.06-5.07,13.28-.03,18.35l63.93,63.93c1.72,1.72,1.72,4.52,0,6.24-1.08,1.08-2.58,1.48-3.97,1.21-.83-.16-1.63-.57-2.28-1.21L34.13,17.82c-5.07-5.07-13.31-5.07-18.38,0-5.07,5.07-5.07,13.31,0,18.38L95.44,115.9c1.72,1.72,1.72,4.52,0,6.24-1.72,1.72-4.52,1.72-6.24,0L22.19,55.14c-2.45-2.45-5.72-3.81-9.19-3.81s-6.74,1.35-9.19,3.81c-2.46,2.45-3.81,5.72-3.81,9.19s1.35,6.74,3.81,9.19l73.4,73.4c1.72,1.72,1.72,4.52,0,6.24-.86,.86-1.99,1.29-3.12,1.29s-2.26-.43-3.12-1.29l-35.58-35.58c-4.23-4.22-11.04-4.39-15.2-.36-2.09,2.03-3.24,4.75-3.25,7.66,0,2.85,1.11,5.53,3.12,7.54l85.74,85.74c6.56,6.56,14.01,12.14,22.14,16.6,8.32,4.56,15.98,10.2,22.8,16.78l77.46-77.46c-2.97-20.93-12.25-70.85-24.38-82.98l-40.54-40.54Z"/></g></g></svg>