<?xml version="1.0" encoding="UTF-8"?><svg xmlns="http://www.w3.org/2000/svg" viewBox="0 0 252.2 250.82"><defs><style>.d{fill:#fff;}</style></defs><g id="a"/><g id="b"><g id="c"><path class="d" d="M247.56,237.18c-6.48-2.35-13.28-4.71-19.84-6.99-17.15-5.95-43.03-14.93-46.66-19.34-4-6.8-3.78-14.31-3.42-26.74,.05-1.58,.09-3.24,.13-4.95,6.75-10.58,12.07-23.82,15.8-39.54,12.28-5.42,19.33-22.55,18.13-36.79-.8-9.42-5.2-16.13-11.95-18.83,.02-1.4,.03-2.8,.03-4.19,0-24.43-7.91-45.05-22.87-59.63C163.54,7.17,145.59,0,126.36,0s-37.18,7.17-50.54,20.2c-14.96,14.58-22.86,35.2-22.86,59.63,0,1.33,0,2.67,.02,3.99-7.05,2.56-11.65,9.37-12.47,19.02-1.23,14.46,6.07,31.9,18.69,37.04,3.59,15.11,8.69,27.95,15.21,38.38,.04,2.05,.1,4.01,.15,5.87,.36,12.42,.57,19.93-3.42,26.73-3.62,4.41-29.51,13.39-46.66,19.34-6.57,2.28-13.36,4.63-19.85,6.99-3.65,1.32-5.54,5.35-4.21,9,1.04,2.86,3.73,4.63,6.61,4.63,.8,0,1.6-.14,2.4-.42,6.39-2.32,13.14-4.66,19.66-6.92,35.04-12.15,49.78-17.88,54.17-25.49,4.23-7.2,5.36-14.29,5.52-22.67,10.68,9.21,23.49,14.04,37.58,14.04s26.62-4.61,37.08-13.47c.2,8.13,1.37,15.06,5.51,22.1,4.38,7.61,19.13,13.34,54.17,25.49,6.52,2.26,13.27,4.6,19.66,6.92,.79,.29,1.6,.42,2.4,.42,2.87,0,5.57-1.78,6.61-4.64,1.32-3.65-.56-7.68-4.21-9Z"/></g></g></svg>