<?xml version="1.0" encoding="UTF-8"?><svg xmlns="http://www.w3.org/2000/svg" viewBox="0 0 177.17 251.77"><defs><style>.d{fill:#fff;}</style></defs><g id="a"/><g id="b"><g id="c"><path class="d" d="M177.17,.67L89.83,0l-3.73,3.51c-28.03,26.28-52.25,48.97-42.09,93.76,2.15,11.45,4.86,23.25,7.49,34.66l.05,.22c3.92,16.93,8.36,36.13,10.58,53.91l.02,.12c2.99,19.38-5.09,30.2-26.29,35.1-1.27,.32-2.27,.55-3.22,.76-4.74,1.06-7.88,1.77-27.99,9.25l-3.25,1.19-.95,3.29c-1.09,3.68-.22,7.37,2.39,10.13,3.77,4.01,10.96,5.87,22.62,5.87,12.93,0,31.52-2.55,49.75-6.82l.31-.07,1.06-.43c.77-.38,.91-.44,2.96,.67,1.87,1.03,4.69,2.58,8.4,2.58s7.14-1.45,10.82-4.44c3.89-3.17,3.58-8.23,2.77-21.75-.73-12.37-1.74-29.3,1.31-39.95,.93-3.26,1.8-6.2,2.62-8.91,5.53-18.62,8.06-27.12,2.94-52.76l-.08-.32c-.62-2.22-1.2-4.27-1.74-6.13l-.25-.89c-2.96-10.36-4.44-15.56-3.16-19.26,1.35-3.89,6.42-8.27,15.64-16.23l3.59-3.11c6.37-4.97,12.28-11.69,18.56-18.83,10.14-11.49,20.63-23.37,31.16-25.29l5.04-.9V.67Z"/></g></g></svg>