<?xml version="1.0" encoding="UTF-8"?><svg xmlns="http://www.w3.org/2000/svg" viewBox="0 0 252.2 158.64"><defs><style>.d{fill:#fff;}</style></defs><g id="a"/><g id="b"><g id="c"><path class="d" d="M252.2,72.18h0c-12.19-8.65-25.52-21.81-39.57-35.68-9.81-9.69-19.95-19.7-30.32-28.8-6.2-5.46-12.62-11.11-25.08-5.16l-17.83,9.49c-4.22,2.44-5.98,3.44-13.3,3.44s-9.1-1.01-13.32-3.46L94.96,2.54c-12.46-5.94-18.87-.3-25.07,5.16-10.3,9.05-20.38,19.02-30.14,28.65C25.64,50.3,12.25,63.52,0,72.18l3.09,4.98,63.81,60.98c10.98,10.65,25.75,20.49,59.25,20.49s48.27-9.84,59.24-20.48l63.86-61.03s-.09,.03-.13,.04h0l3.09-4.98Zm-83.93,10.36c-9.83,5.74-22.05,12.89-42.16,12.89s-32.35-7.15-42.18-12.89c-7.82-4.57-14.02-8.19-21.78-7.1-.03,0-.06,.02-.09,.03-.74,.16-1.45,.31-2.16,.47-1.84,.33-3.05,.27-3.83-.69l4.74-3.4c23.01-17.19,38.87-11.29,51.62-6.55,5.08,1.89,9.47,3.53,13.68,3.53s8.6-1.64,13.69-3.53c12.75-4.75,28.61-10.64,51.61,6.54h-.02l4.74,3.41c-.77,.96-1.97,1.02-3.8,.7-.72-.16-1.44-.31-2.18-.47-.03,0-.06-.02-.1-.03-7.76-1.08-13.96,2.53-21.78,7.11Z"/></g></g></svg>