<?xml version="1.0" encoding="UTF-8"?><svg xmlns="http://www.w3.org/2000/svg" viewBox="0 0 252.2 158.64"><defs><style>.d{fill:#fff;}</style></defs><g id="a"/><g id="b"><g id="c"><g><path class="d" d="M60.81,71.84c23.01-17.19,38.87-11.29,51.62-6.55,5.08,1.89,9.47,3.53,13.68,3.53s8.6-1.64,13.69-3.53c12.75-4.75,28.62-10.64,51.62,6.55,34.16,7.46,40.99,6.81,60.78,.34-12.19-8.65-25.52-21.81-39.57-35.68-9.81-9.69-19.95-19.7-30.32-28.8-6.2-5.46-12.62-11.11-25.08-5.16l-17.83,9.49c-4.22,2.44-5.98,3.44-13.3,3.44s-9.1-1.01-13.32-3.46L94.96,2.54c-12.46-5.94-18.87-.3-25.07,5.16-10.3,9.05-20.38,19.02-30.14,28.65C25.64,50.3,12.25,63.52,0,72.18c19.8,6.48,26.63,7.13,60.81-.34Z"/><path class="d" d="M190.15,75.47s-.06-.02-.1-.03c-7.76-1.08-13.96,2.53-21.78,7.11-9.83,5.74-22.05,12.89-42.16,12.89s-32.35-7.15-42.18-12.89c-7.82-4.57-14.02-8.19-21.78-7.1-.03,0-.06,.02-.09,.03-17.43,3.82-28.1,5.57-36.86,5.57-7.74,0-14-1.37-22.1-3.87l63.81,60.98c10.98,10.65,25.75,20.49,59.25,20.49s48.27-9.84,59.24-20.48l63.86-61.03c-8.17,2.53-14.45,3.91-22.22,3.91-8.76,0-19.43-1.75-36.86-5.57Z"/></g></g></g></svg>