<?xml version="1.0" encoding="UTF-8"?><svg xmlns="http://www.w3.org/2000/svg" viewBox="0 0 252.2 246.85"><defs><style>.d{fill:#fff;}</style></defs><g id="a"/><g id="b"><g id="c"><path class="d" d="M201.63,202.31c-11.07-13.82-14.16-36.24-9.45-68.52,3.98-5.59,7.71-11.81,11.1-18.48,14.89-29.3,23.43-67.72,23.43-105.4,0-5.46-4.45-9.91-9.91-9.91s-9.91,4.45-9.91,9.91c0,32.08-8.16,80.8-31.13,112.79-.68,.68-1.25,1.45-1.7,2.29-13.35,17.53-29.31,26.42-47.44,26.42-30.9,0-49.84-25.98-60.29-47.77-12.51-26.1-19.98-61.14-19.98-93.73,0-5.46-4.45-9.91-9.91-9.91s-9.91,4.45-9.91,9.91c0,37.68,8.54,76.1,23.43,105.4,3.01,5.92,6.3,11.5,9.79,16.6,5.12,33.28,2.11,56.31-9.18,70.41-10.85,13.54-29.76,18.37-50.57,20.73v19.95c11.89-1.23,23.47-3.14,34.05-6.77,64.18,12.77,126.16,15.52,184.09,0,10.58,3.63,22.16,5.54,34.05,6.77v-19.95c-20.8-2.36-39.71-7.19-50.57-20.73Z"/></g></g></svg>