<?xml version="1.0" encoding="UTF-8"?><svg xmlns="http://www.w3.org/2000/svg" viewBox="0 0 216.11 243.26"><defs><style>.d{fill:#fff;}</style></defs><g id="a"/><g id="b"><g id="c"><path class="d" d="M75.73,238.47l-7.73-10.86c-1.99-3.92-3.41-8.11-4.19-12.44-1.74,.32-3.6,.49-5.54,.49-9.77,0-17.69-4.36-17.69-9.74s7.92-9.74,17.69-9.74c9.05,0,16.49,3.74,17.55,8.57l.35,.03c-.52,6.7,1.12,13.37,4.56,19.04l2.02,2.32c.18,.21,.36,.42,.55,.62,6.37,6.87,15.39,10.82,24.76,10.82s18.4-3.94,24.76-10.82c.19-.21,.38-.42,.56-.64l2.02-2.33c3.43-5.67,5.06-12.33,4.54-19.02l.36-.03c1.05-4.83,8.5-8.57,17.55-8.57,9.77,0,17.69,4.36,17.69,9.74s-7.92,9.74-17.69,9.74c-1.94,0-3.8-.18-5.54-.49-.78,4.33-2.2,8.52-4.19,12.44l-7.73,10.86c6.92,3.14,14.46,4.79,22.12,4.79,29.56,0,53.62-24.05,53.62-53.62s-22.32-51.85-50.39-53.52c-4.84-11.13-15.72-60.54-24.13-105.41C140.08,13.46,125.41,0,108.06,0s-32.02,13.46-33.54,30.71c-8.41,44.87-19.29,94.28-24.13,105.41C22.32,137.8,0,161.16,0,189.64s24.05,53.62,53.62,53.62c7.66,0,15.2-1.65,22.12-4.79"/></g></g></svg>