<?xml version="1.0" encoding="UTF-8"?><svg xmlns="http://www.w3.org/2000/svg" viewBox="0 0 131.81 243.2"><defs><style>.d{fill:#fff;}</style></defs><g id="a"/><g id="b"><g id="c"><path class="d" d="M3.84,243.2H13.79c2.11,0,3.84-1.72,3.84-3.83v-29.38c0-9.17,7.46-16.64,16.64-16.64,13.61,0,24.93,9.98,27.02,23.01,0,6.39,9.23,6.39,9.23,0,2.1-13.03,13.42-23.01,27.02-23.01,9.18,0,16.64,7.46,16.64,16.64v29.38c0,2.11,1.72,3.83,3.83,3.83h9.96c2.11,0,3.83-1.72,3.83-3.83V3.83c0-2.11-1.72-3.83-3.83-3.83h-9.96c-2.11,0-3.83,1.72-3.83,3.83V48.28c0,11.35-8.25,20.8-19.06,22.7v3.17c0,6.38-5.19,11.57-11.57,11.57s-11.57-5.19-11.57-11.57v-6.8c0-2.2,1.78-3.98,3.98-3.98s3.98,1.78,3.98,3.98v6.8c0,1.98,1.61,3.6,3.6,3.6s3.6-1.61,3.6-3.6V27.95c0-1.8-1.05-3.46-2.67-4.24l-14.59-6.98v6.95h6.08c1.13,0,2.22,.48,2.97,1.33,.76,.85,1.12,1.97,.99,3.1l-2.09,18.58h2.16c2.2,0,3.98,1.78,3.98,3.98s-1.78,3.98-3.98,3.98h-6.62c-1.13,0-2.22-.48-2.97-1.33-.76-.85-1.12-1.97-.99-3.1l2.09-18.58h-11.21l2.09,18.58c.13,1.13-.23,2.26-.99,3.1-.76,.85-1.84,1.33-2.97,1.33h-6.62c-2.2,0-3.98-1.78-3.98-3.98s1.78-3.98,3.98-3.98h2.16l-2.09-18.58c-.13-1.13,.23-2.26,.99-3.1,.76-.85,1.84-1.33,2.97-1.33h6.08v-6.95l-14.59,6.99c-1.62,.78-2.67,2.44-2.67,4.24v46.19c0,1.98,1.61,3.6,3.6,3.6s3.6-1.61,3.6-3.6v-6.8c0-2.2,1.78-3.98,3.98-3.98s3.98,1.78,3.98,3.98v6.8c0,6.38-5.19,11.57-11.57,11.57s-11.57-5.19-11.57-11.57v-3.17c-10.81-1.89-19.06-11.35-19.06-22.7V3.83c0-2.11-1.72-3.83-3.84-3.83H3.84C1.72,0,0,1.72,0,3.83V239.37c0,2.11,1.72,3.83,3.84,3.83Zm46.3-78.7c-.4,1.88-2.05,3.16-3.9,3.16-.27,0-.55-.03-.83-.09-8.85-1.87-17.87-2.19-26.81-.97-2.18,.3-4.19-1.23-4.49-3.41-.3-2.18,1.23-4.19,3.41-4.49,9.85-1.35,19.79-.99,29.54,1.06,2.15,.45,3.53,2.57,3.08,4.72Zm-23.35-27.55c-2.2-.14-3.87-2.03-3.73-4.23s2.02-3.87,4.23-3.73c14.73,.92,26.38,4.73,33.55,7.77,2.03,.86,2.98,3.2,2.12,5.22-.64,1.52-2.12,2.43-3.67,2.43-.52,0-1.04-.1-1.55-.32-6.6-2.79-17.33-6.3-30.95-7.15Zm47.79,34.13c-4.21,1.64-6.61,3.05-6.64,3.07-.63,.37-1.34,.56-2.04,.56s-1.42-.19-2.05-.56c-.02,0-2.42-1.43-6.63-3.06-2.05-.8-3.07-3.11-2.27-5.16,.8-2.05,3.11-3.07,5.16-2.27,2.5,.97,4.45,1.88,5.79,2.55,1.33-.67,3.29-1.58,5.79-2.55,2.05-.8,4.36,.22,5.16,2.27,.8,2.05-.22,4.36-2.27,5.16Zm-.51-26.97c-.51,.21-1.03,.32-1.55,.32-1.55,0-3.03-.91-3.67-2.43-.86-2.03,.09-4.37,2.12-5.22,7.17-3.03,18.82-6.84,33.55-7.77,2.19-.14,4.09,1.53,4.23,3.73,.14,2.2-1.53,4.09-3.73,4.23-13.62,.85-24.35,4.36-30.95,7.15Zm43.62,19.11c-.3,2.18-2.31,3.71-4.49,3.41-8.94-1.22-17.96-.9-26.81,.97-.28,.06-.55,.09-.83,.09-1.84,0-3.5-1.29-3.9-3.16-.45-2.15,.92-4.27,3.08-4.72,9.75-2.05,19.69-2.41,29.54-1.06,2.18,.3,3.71,2.31,3.41,4.49Zm7.71-33.45c2.18,.3,3.71,2.31,3.41,4.49-.27,2-1.98,3.44-3.94,3.44-.18,0-.36-.01-.55-.04-2.39-.33-4.82-.57-7.22-.72-2.2-.14-3.87-2.03-3.73-4.22,.13-2.2,2.04-3.86,4.22-3.73,2.6,.16,5.23,.42,7.81,.78Zm-31.34-27.64c6.72-.67,13.52-.54,20.22,.38,2.18,.3,3.71,2.31,3.41,4.49-.27,2-1.98,3.44-3.94,3.44-.18,0-.36-.01-.55-.04-6.08-.83-12.25-.95-18.35-.34-2.19,.22-4.14-1.38-4.36-3.57-.22-2.19,1.38-4.14,3.57-4.36Zm-51.04,4.63c.47-2.15,2.6-3.51,4.75-3.04,8.73,1.92,15.07,4.73,18.13,6.26,3.06-1.54,9.4-4.35,18.13-6.26,2.15-.47,4.27,.89,4.75,3.04,.47,2.15-.89,4.27-3.04,4.75-11.05,2.43-17.73,6.38-17.79,6.42-.63,.38-1.34,.57-2.05,.57s-1.42-.19-2.05-.57c-.06-.04-6.85-4.01-17.79-6.42-2.15-.47-3.51-2.6-3.04-4.75Zm-25.5-4.25c6.69-.92,13.5-1.04,20.22-.38,2.19,.22,3.79,2.17,3.57,4.36-.22,2.19-2.17,3.79-4.36,3.57-6.1-.61-12.27-.49-18.35,.34-.18,.03-.37,.04-.55,.04-1.96,0-3.67-1.45-3.94-3.44-.3-2.18,1.23-4.19,3.41-4.49Zm-11.12,27.26c2.59-.35,5.22-.62,7.81-.78,2.18-.13,4.09,1.54,4.22,3.73,.14,2.2-1.54,4.09-3.73,4.22-2.4,.15-4.83,.39-7.22,.72-.18,.03-.37,.04-.55,.04-1.96,0-3.67-1.45-3.94-3.44-.3-2.18,1.23-4.19,3.41-4.49Z"/></g></g></svg>