<?xml version="1.0" encoding="UTF-8"?><svg xmlns="http://www.w3.org/2000/svg" viewBox="0 0 247.65 252.78"><defs><style>.d{fill:#fff;}</style></defs><g id="a"/><g id="b"><g id="c"><g><path class="d" d="M234.52,97.77c15.6-29.25,13.01-88.41,12.9-90.92-.09-1.93-.93-3.7-2.36-5-1.43-1.29-3.27-1.94-5.15-1.84-3.96,.19-7.03,3.56-6.84,7.51,0,.06,.27,6.08,.16,15.15l-.65,17.39c-1.46,22.91-5.17,40.52-10.73,50.95-4.11,7.7-6.97,19.42-8.97,31.73-24.94-9.04-153.16-9.04-178.1,0-2-12.31-4.86-24.02-8.97-31.73-5.33-10-8.98-26.69-10.55-48.29l-.82-19.53c-.13-9.28,.15-15.6,.15-15.66,.09-1.92-.57-3.76-1.86-5.18C11.43,.93,9.66,.1,7.76,.01c-1.92-.1-3.76,.56-5.18,1.85C1.15,3.15,.32,4.93,.23,6.85c-.12,2.51-2.69,61.68,12.9,90.92,6.19,11.61,10.93,42.66,11.8,77.27,1.03,41.29-3.74,62.17-6.99,65.64-1.31,1.4-2,3.23-1.94,5.15,.06,1.92,.87,3.7,2.27,5.01,1.34,1.25,3.08,1.94,4.91,1.94,1.98,0,3.89-.83,5.24-2.27,2.12-2.26,3.84-5.7,5.24-9.91,27.79,7.1,157.68,6.91,180.12-.56,1.5,4.7,3.29,8.16,5.45,10.47,1.35,1.44,3.26,2.27,5.24,2.27,1.83,0,3.58-.69,4.91-1.94,1.4-1.31,2.21-3.09,2.27-5.01,.06-1.92-.63-3.75-1.94-5.15-3.25-3.47-8.02-24.35-6.99-65.64,.87-34.61,5.61-65.66,11.8-77.27Z"/><path class="d" d="M49.04,115.95c.57,0,1.14-.07,1.71-.21,23.86-5.85,36.52-5.61,48.78-5.37,4.22,.08,8.2,.16,12.62,0,4.1-.14,8.22-1.62,11.67-4.11,3.45,2.49,7.57,3.98,11.67,4.11,4.42,.15,8.4,.07,12.63,0,12.25-.24,24.92-.48,48.77,5.37,.56,.14,1.15,.21,1.73,.21,3.32,0,6.19-2.25,6.98-5.47,.46-1.86,.16-3.8-.83-5.44-.99-1.64-2.57-2.8-4.43-3.25-25.68-6.3-39.3-6.04-52.48-5.78-4.02,.08-7.82,.15-11.87,.02-2.15-.07-4.05-1.48-4.96-2.47V25.13c0-4.06-3.22-7.36-7.19-7.36s-7.19,3.3-7.19,7.36V93.54c-.91,.99-2.81,2.4-4.96,2.47-4.05,.13-7.85,.06-11.87-.02-13.18-.25-26.8-.51-52.48,5.78-1.86,.46-3.44,1.61-4.43,3.25-1,1.64-1.29,3.57-.83,5.44,.79,3.22,3.66,5.48,6.98,5.48Zm148.94-4.66h0Z"/></g></g></g></svg>