<?xml version="1.0" encoding="UTF-8"?><svg xmlns="http://www.w3.org/2000/svg" viewBox="0 0 1232.66 1946.24"><defs><style>.d{fill:#dbdbdb;}.e{fill:#332f2e;}</style></defs><g id="a"/><g id="b"><g id="c"><g><path class="d" d="M615.41,1552.94c-62.72,0-126.16-26.87-188.59-79.86-61.58-52.28-124.04-131.63-185.64-235.84l17.22-10.18c60.46,102.29,121.48,179.94,181.36,230.77,58.71,49.84,117.81,75.11,175.65,75.11,.28,0,.56,0,.85,0,57.69-.25,116.35-25.65,174.33-75.5,59.12-50.82,119.08-128.31,178.19-230.31l17.3,10.03c-60.25,103.94-121.63,183.16-182.46,235.44-61.7,53.04-124.71,80.06-187.29,80.33-.31,0-.63,0-.94,0Z"/><g><path class="e" d="M476.96,2.43c-20.74-5.61-73.3-2.87-105.39,22.96v60.33c32.09,25.83,84.65,28.56,105.39,22.96,17.34-5.28,26.04-29.19,26.05-53.12-.01-23.94-8.71-47.84-26.05-53.12Z"/><path class="d" d="M344.79,27.28v52.17C-188.26,123.28,151.39,730.59,228.61,1173.02l-50.09,14.61C104.44,721.2-264.95,77.89,344.79,27.28Z"/><path class="e" d="M755.7,2.43c20.74-5.61,73.3-2.87,105.39,22.96v60.33c-32.09,25.83-84.65,28.56-105.39,22.96-17.34-5.28-26.04-29.19-26.05-53.12,.01-23.94,8.71-47.84,26.05-53.12Z"/><path class="d" d="M887.87,27.28v52.17c533.04,43.83,193.39,651.13,116.17,1093.56l50.09,14.61C1128.22,721.2,1497.61,77.89,887.87,27.28Z"/><path class="e" d="M973.79,1198.07c-72.89,275.93-121.89,433.41-357.46,434.08-235.57-.67-284.57-158.14-357.46-434.08l-99.13,27.13c74.09,393.39,229.04,509.22,400.7,509.22v211.83h111.78v-211.83c171.65,0,326.61-115.83,400.7-509.22l-99.13-27.13Z"/></g></g></g></g></svg>